<!DOCTYPE svg PUBLIC "-//W3C//DTD SVG 1.1//EN" "http://www.w3.org/Graphics/SVG/1.1/DTD/svg11.dtd">
<!-- Uploaded to: SVG Repo, www.svgrepo.com, Transformed by: SVG Repo Mixer Tools -->
<svg height="800px" width="800px" version="1.1" id="Layer_1" xmlns="http://www.w3.org/2000/svg" xmlns:xlink="http://www.w3.org/1999/xlink" viewBox="0 0 512 512" xml:space="preserve" fill="#000000">
<g id="SVGRepo_bgCarrier" stroke-width="0"/>
<g id="SVGRepo_tracerCarrier" stroke-linecap="round" stroke-linejoin="round"/>
<g id="SVGRepo_iconCarrier"> <circle style="fill:#fde363;" cx="256" cy="256" r="256"/> <path style="fill:#f7b950;" d="M420.256,59.744C457.504,104.224,480,161.456,480,224c0,141.376-114.624,256-256,256 c-62.544,0-119.776-22.48-164.256-59.728C106.704,476.32,177.152,512,256,512c141.376,0,256-114.608,256-256 C512,177.168,476.32,106.704,420.256,59.744z"/> <path style="fill:#C98E3F;" d="M192,240c-8.848,0-16-7.168-16-16c0-8.816-7.168-16-16-16s-16,7.184-16,16c0,8.832-7.152,16-16,16 s-16-7.168-16-16c0-26.464,21.536-48,48-48s48,21.536,48,48C208,232.848,200.848,240,192,240z"/> <path style="fill:#AB7934;" d="M160,192c22.944,0,42.128,16.208,46.848,37.744c0.688-1.776,1.152-3.696,1.152-5.744 c0-26.464-21.536-48-48-48s-48,21.536-48,48c0,2.032,0.464,3.952,1.152,5.744C117.872,208.208,137.056,192,160,192z"/> <path style="fill:#C98E3F;" d="M384,240c-8.848,0-16-7.168-16-16c0-8.816-7.168-16-16-16s-16,7.184-16,16c0,8.832-7.152,16-16,16 s-16-7.168-16-16c0-26.464,21.536-48,48-48s48,21.536,48,48C400,232.848,392.848,240,384,240z"/> <g> <circle style="fill:#f7b950;" cx="408" cy="280" r="24"/> <circle style="fill:#f7b950;" cx="104" cy="280" r="24"/> </g> <path style="fill:#AB7934;" d="M352,192c22.944,0,42.128,16.208,46.848,37.744c0.688-1.776,1.152-3.696,1.152-5.744 c0-26.464-21.536-48-48-48s-48,21.536-48,48c0,2.032,0.464,3.952,1.152,5.744C309.872,208.208,329.056,192,352,192z"/> <path style="fill:#C98E3F;" d="M343.28,304H168.72c-4.816,0-8.72,3.6-8.72,8c0,48.528,43.056,88,96,88s96-39.472,96-88 C352,307.6,348.096,304,343.28,304z"/> <path style="fill:#AB7934;" d="M351.36,320c0.288-2.64,0.64-5.28,0.64-8c0-4.4-3.904-8-8.72-8H168.72c-4.816,0-8.72,3.6-8.72,8 c0,2.72,0.352,5.36,0.64,8H351.36z"/> </g>
</svg>